# File created by Blade
# Date/Time:  Thu Jan 22 16:36:26 2015
# Frame Rate: 120.000 fps
#------------------------------------------------------
:FULLY-SPECIFIED
:DEGREES
3318
root 6.428137 19.589819 34.709555 -7.025714 14.454019 -6.045775
RightUpLeg -74.867742 -11.212828 -4.832694
RightLeg 96.085421 -0.000000 -0.000000
RightFoot -18.292935 0.488877 20.839044
RightToeBase -349.967726 -0.000000 -0.000000
LeftUpLeg 12.596448 -17.636506 0.657113
LeftLeg 101.882874 -0.000000 -0.000000
LeftFoot -7.693177 10.636665 -24.745906
LeftToeBase 20.511458 -0.000000 -0.000000
Spine 30.256071 -0.577514 -0.337776
RightShoulder -2.838651 -22.312887 -10.760474
RightArm 8.594303 -1.931711 64.010052
RightForeArm 15.086362 -0.000000 82.754195
RightHand 16.130530 -0.000000 -28.683754
RightHandThumb1 -24.326973 -0.000000 -32.862282
LeftShoulder -23.725384 34.638357 -4.244635
LeftArm 40.712791 14.980584 -68.586784
LeftForeArm 18.473870 -0.000000 38.515778
LeftHand -16.579957 -0.000000 -5.193741
LeftHandThumb1 -26.253704 0.000000 33.147579
Head 10.378432 -0.269348 0.061689
3319
root 6.439460 19.588075 34.744662 -6.907337 14.513867 -5.974963
RightUpLeg -75.015177 -11.004148 -5.028106
RightLeg 96.295467 -0.000000 -0.000000
RightFoot -18.309757 0.529460 21.056527
RightToeBase -350.448764 -0.000000 -0.000000
LeftUpLeg 12.602413 -17.760942 0.560772
LeftLeg 101.767801 -0.000000 -0.000000
LeftFoot -7.565008 10.493916 -24.693694
LeftToeBase 20.313655 -0.000000 -0.000000
Spine 30.244438 -0.439732 -0.058698
RightShoulder -2.604373 -22.198407 -11.058797
RightArm 8.546487 -1.448648 63.571460
RightForeArm 14.984825 -0.000000 82.751643
RightHand 16.355456 -0.000000 -28.963642
RightHandThumb1 -24.326973 -0.000000 -32.862282
LeftShoulder -23.766031 34.703120 -4.290151
LeftArm 40.784249 15.280082 -68.612611
LeftForeArm 18.959449 -0.000000 38.119462
LeftHand -16.465073 -0.000000 -5.341426
LeftHandThumb1 -26.253704 0.000000 33.147579
Head 10.225046 -0.427881 -0.130194
3320
root 6.448127 19.589016 34.790415 -6.826929 14.531171 -5.936961
RightUpLeg -75.089337 -10.823721 -5.118099
RightLeg 96.526932 -0.000000 -0.000000
RightFoot -18.595870 0.369072 20.955610
RightToeBase -350.967709 -0.000000 -0.000000
LeftUpLeg 12.675079 -17.842002 0.494227
LeftLeg 101.598188 -0.000000 -0.000000
LeftFoot -7.405859 10.390331 -24.566676
LeftToeBase 20.344743 -0.000000 -0.000000
Spine 30.242919 -0.240395 0.264243
RightShoulder -2.409563 -22.099592 -11.288487
RightArm 8.524649 -0.987570 63.055530
RightForeArm 14.974107 -0.000000 82.815861
RightHand 16.327877 -0.000000 -29.433654
RightHandThumb1 -24.326973 -0.000000 -32.862282
LeftShoulder -23.781982 34.816831 -4.348427
LeftArm 40.826601 15.573899 -68.573442
LeftForeArm 19.337449 -0.000000 37.813637
LeftHand -16.338781 -0.000000 -5.265657
LeftHandThumb1 -26.253704 0.000000 33.147579
Head 10.122073 -0.630194 -0.227102
3321
root 6.452380 19.592192 34.844799 -6.805583 14.554199 -5.962112
RightUpLeg -75.049292 -10.605483 -5.203883
RightLeg 96.710784 -0.000000 -0.000000
RightFoot -18.929797 0.449869 21.163966
RightToeBase -352.074025 -0.000000 -0.000000
LeftUpLeg 12.812479 -17.935056 0.489261
LeftLeg 101.422007 -0.000000 -0.000000
LeftFoot -7.259684 10.275439 -24.462993
LeftToeBase 20.211527 -0.000000 -0.000000
Spine 30.270625 -0.124901 0.634398
RightShoulder -2.143628 -21.947967 -11.606299
RightArm 8.534563 -0.486801 62.632728
RightForeArm 14.950154 -0.000000 82.804468
RightHand 16.460057 0.000000 -29.599434
RightHandThumb1 -24.326973 -0.000000 -32.862282
LeftShoulder -23.829658 34.840628 -4.402963
LeftArm 40.757122 15.871966 -68.577566
LeftForeArm 19.671000 -0.000000 37.497695
LeftHand -16.294573 0.000000 -5.209586
LeftHandThumb1 -26.253704 0.000000 33.147579
Head 10.043457 -0.716947 -0.293433
3322
root 6.455516 19.596199 34.905517 -6.784744 14.548851 -6.010674
RightUpLeg -74.969439 -10.384385 -5.240840
RightLeg 96.843249 -0.000000 -0.000000
RightFoot -19.518016 0.428252 21.224788
RightToeBase -352.375730 -0.000000 -0.000000
LeftUpLeg 12.970113 -18.004416 0.511707
LeftLeg 101.220458 -0.000000 -0.000000
LeftFoot -7.162762 10.139870 -24.486066
LeftToeBase 20.221074 -0.000000 -0.000000
Spine 30.256751 0.050548 1.035485
RightShoulder -1.972940 -21.809046 -11.838801
RightArm 8.615310 -0.040897 62.123213
RightForeArm 14.866874 -0.000000 82.774771
RightHand 16.547319 -0.000000 -29.826154
RightHandThumb1 -24.326973 -0.000000 -32.862282
LeftShoulder -23.884139 34.956167 -4.480723
LeftArm 40.769815 16.142812 -68.535493
LeftForeArm 20.024982 -0.000000 37.172243
LeftHand -16.286177 -0.000000 -5.225515
LeftHandThumb1 -26.253704 0.000000 33.147579
Head 10.049919 -0.972449 -0.351126
3323
root 6.462493 19.597043 34.974493 -6.751496 14.535961 -6.048143
RightUpLeg -74.897812 -10.234059 -5.240820
RightLeg 96.994991 -0.000000 -0.000000
RightFoot -20.224776 0.469149 20.908688
RightToeBase -353.279722 -0.000000 -0.000000
LeftUpLeg 13.152098 -18.052399 0.512897
LeftLeg 100.995060 -0.000000 -0.000000
LeftFoot -7.095297 10.035124 -24.530080
LeftToeBase 20.217239 -0.000000 -0.000000
Spine 30.192909 0.167994 1.396283
RightShoulder -1.766298 -21.641232 -12.099872
RightArm 8.725533 0.330275 61.622401
RightForeArm 14.811790 -0.000000 82.734492
RightHand 16.633106 -0.000000 -30.262403
RightHandThumb1 -24.326973 -0.000000 -32.862282
LeftShoulder -24.050080 35.108157 -4.640792
LeftArm 40.768678 16.381348 -68.474296
LeftForeArm 20.244979 -0.000000 36.852223
LeftHand -16.222141 -0.000000 -5.335798
LeftHandThumb1 -26.253704 0.000000 33.147579
Head 10.091918 -1.133754 -0.358116
3324
root 6.465248 19.596765 35.035730 -6.644551 14.535504 -6.075704
RightUpLeg -74.888019 -10.067959 -5.272922
RightLeg 97.166207 -0.000000 -0.000000
RightFoot -21.175169 0.648025 20.849380
RightToeBase -354.067928 -0.000000 -0.000000
LeftUpLeg 13.227503 -18.106725 0.543684
LeftLeg 100.793883 -0.000000 -0.000000
LeftFoot -7.018552 9.919588 -24.629103
LeftToeBase 20.197421 -0.000000 -0.000000
Spine 30.041946 0.295918 1.752391
RightShoulder -1.613012 -21.480108 -12.354459
RightArm 8.894945 0.645064 61.132370
RightForeArm 14.763402 0.000000 82.729576
RightHand 16.565497 -0.000000 -30.510704
RightHandThumb1 -24.326973 -0.000000 -32.862282
LeftShoulder -24.192679 35.232881 -4.787129
LeftArm 40.743249 16.625592 -68.366303
LeftForeArm 20.348027 -0.000000 36.545727
LeftHand -16.314687 -0.000000 -5.315707
LeftHandThumb1 -26.253704 0.000000 33.147579
Head 10.157528 -1.313306 -0.323829
3325
root 6.465331 19.591803 35.093989 -6.428462 14.503176 -6.007025
RightUpLeg -75.042467 -9.891539 -5.341457
RightLeg 97.423539 -0.000000 -0.000000
RightFoot -22.196172 0.632289 20.654302
RightToeBase -354.998274 -0.000000 -0.000000
LeftUpLeg 13.215406 -18.089922 0.525434
LeftLeg 100.577241 -0.000000 -0.000000
LeftFoot -6.982246 9.907702 -24.689912
LeftToeBase 20.161778 -0.000000 -0.000000
Spine 29.771020 0.500279 1.946088
RightShoulder -1.468918 -21.283271 -12.533846
RightArm 9.028693 0.925373 60.645817
RightForeArm 14.683938 -0.000000 82.720708
RightHand 16.612505 -0.000000 -30.547433
RightHandThumb1 -24.326973 -0.000000 -32.862282
LeftShoulder -24.309564 35.338620 -4.815524
LeftArm 40.581483 16.797295 -68.387139
LeftForeArm 20.552785 -0.000000 36.284015
LeftHand -16.331867 -0.000000 -5.551348
LeftHandThumb1 -26.253704 0.000000 33.147579
Head 10.239670 -1.557465 -0.164989
